<svg width="516" height="436" viewBox="0 0 516 436" fill="none" xmlns="http://www.w3.org/2000/svg">
<rect x="28" width="488" height="436" rx="12" fill="#292932"/>
<path d="M28 71H357C368.046 71 377 79.9543 377 91V436H40C33.3726 436 28 430.627 28 424V71Z" fill="#1C1C24"/>
<path opacity="0.2" d="M357 117H28" stroke="white"/>
<path d="M28 131H155C161.627 131 167 136.373 167 143V408C167 414.627 161.627 420 155 420H28V131Z" fill="#79D861"/>
<circle cx="247" cy="94" r="10" fill="#EE6A5F"/>
<circle cx="283" cy="94" r="10" fill="#F5BE4F"/>
<circle cx="319" cy="94" r="10" fill="#62C554"/>
<rect x="183" y="134" width="174" height="190" rx="8" fill="#D2EFFF"/>
<rect x="199" y="150" width="94" height="8" rx="4" fill="#52C1FF"/>
<rect opacity="0.5" x="199" y="166" width="44" height="8" rx="4" fill="#52C1FF"/>
<rect x="199" y="290" width="56" height="18" rx="9" fill="#52C1FF"/>
<rect x="199" y="222" width="26" height="48" rx="4" fill="#1C1C24"/>
<rect x="239" y="195" width="26" height="75" rx="4" fill="#1C1C24"/>
<rect x="279" y="234" width="26" height="36" rx="4" fill="#1C1C24"/>
<rect x="319" y="228" width="26" height="42" rx="4" fill="#1C1C24"/>
<rect x="183" y="340" width="174" height="80" rx="8" fill="#DCB0FF"/>
<rect x="215" y="354" width="94" height="8" rx="4" fill="white"/>
<rect x="215" y="384" width="82" height="8" rx="4" fill="white"/>
<rect opacity="0.5" x="215" y="368" width="42" height="8" rx="4" fill="white"/>
<rect opacity="0.5" x="215" y="398" width="30" height="8" rx="4" fill="white"/>
<rect y="186" width="154" height="112" rx="8" fill="#1E75FF"/>
<rect opacity="0.5" x="16" y="202" width="117" height="8" rx="4" fill="white"/>
<rect opacity="0.5" x="16" y="222" width="95" height="8" rx="4" fill="white"/>
<rect opacity="0.5" x="16" y="242" width="59" height="8" rx="4" fill="white"/>
<rect x="16" y="270" width="59" height="16" rx="8" fill="#F6FF82"/>
</svg>
